<svg width="41" height="41" viewBox="0 0 41 41" fill="none" xmlns="http://www.w3.org/2000/svg">
<path d="M20.4134 10.4311C17.6914 10.4311 15.0808 11.5124 13.156 13.4372C11.2312 15.362 10.1498 17.9726 10.1498 20.6947C10.1498 23.4168 11.2312 26.0274 13.156 27.9522C15.0808 29.877 17.6914 30.9583 20.4134 30.9583C23.1355 30.9583 25.7461 29.877 27.6709 27.9522C29.5957 26.0274 30.6771 23.4168 30.6771 20.6947C30.6771 17.9726 29.5957 15.362 27.6709 13.4372C25.7461 11.5124 23.1355 10.4311 20.4134 10.4311ZM20.4134 27.3603C18.645 27.3603 16.9491 26.6578 15.6986 25.4073C14.4481 24.1569 13.7456 22.4609 13.7456 20.6925C13.7456 18.9241 14.4481 17.2281 15.6986 15.9776C16.9491 14.7272 18.645 14.0247 20.4134 14.0247C22.1819 14.0247 23.8778 14.7272 25.1283 15.9776C26.3788 17.2281 27.0813 18.9241 27.0813 20.6925C27.0813 22.4609 26.3788 24.1569 25.1283 25.4073C23.8778 26.6578 22.1819 27.3603 20.4134 27.3603Z" fill="#FEFEFE"/>
<path d="M31.0819 12.4452C32.4034 12.4452 33.4747 11.374 33.4747 10.0525C33.4747 8.73098 32.4034 7.6597 31.0819 7.6597C29.7604 7.6597 28.6891 8.73098 28.6891 10.0525C28.6891 11.374 29.7604 12.4452 31.0819 12.4452Z" fill="#FEFEFE"/>
<path d="M39.3559 7.61882C38.8421 6.29187 38.0568 5.08683 37.0505 4.08084C36.0441 3.07484 34.8387 2.29006 33.5116 1.77672C31.9586 1.19375 30.3179 0.878522 28.6595 0.84447C26.5219 0.751245 25.845 0.724609 20.4246 0.724609C15.0042 0.724609 14.3095 0.724609 12.1897 0.84447C10.5325 0.876781 8.893 1.19207 7.34201 1.77672C6.01452 2.28946 4.80887 3.07403 3.80242 4.08011C2.79597 5.08618 2.01093 6.29153 1.49769 7.61882C0.9146 9.17171 0.600098 10.8125 0.567659 12.471C0.472215 14.6063 0.443359 15.2832 0.443359 20.7058C0.443359 26.1262 0.443359 26.8165 0.567659 28.9407C0.600954 30.601 0.913923 32.2391 1.49769 33.7951C2.01238 35.1219 2.79817 36.3267 3.80487 37.3327C4.81156 38.3386 6.01702 39.1235 7.34423 39.6372C8.89228 40.2436 10.5325 40.5814 12.1941 40.636C14.3317 40.7292 15.0087 40.7581 20.429 40.7581C25.8494 40.7581 26.5441 40.7581 28.6639 40.636C30.3222 40.6023 31.9628 40.2878 33.516 39.706C34.8428 39.1914 36.0478 38.406 37.0541 37.3997C38.0604 36.3934 38.8458 35.1885 39.3604 33.8617C39.9441 32.3079 40.2571 30.6698 40.2904 29.0095C40.3858 26.8742 40.4147 26.1972 40.4147 20.7746C40.4147 15.3521 40.4147 14.664 40.2904 12.5398C40.2646 10.8579 39.9484 9.1931 39.3559 7.61882ZM36.6524 28.7764C36.6381 30.0556 36.4046 31.3229 35.9621 32.5232C35.6288 33.3864 35.1184 34.1702 34.464 34.8243C33.8095 35.4783 33.0254 35.9882 32.1621 36.321C30.9751 36.7615 29.7213 36.995 28.4553 37.0113C26.3466 37.109 25.7517 37.1334 20.3447 37.1334C14.9332 37.1334 14.3805 37.1334 12.2319 37.0113C10.9665 36.9958 9.71331 36.7623 8.5273 36.321C7.66094 35.9902 6.87367 35.4813 6.21641 34.8271C5.55914 34.1729 5.04653 33.388 4.71173 32.5232C4.27545 31.3358 4.04209 30.0835 4.02142 28.8186C3.92598 26.71 3.90378 26.1151 3.90378 20.708C3.90378 15.2988 3.90378 14.7461 4.02142 12.5953C4.03577 11.3168 4.26926 10.0503 4.71173 8.85072C5.38872 7.09942 6.776 5.72102 8.5273 5.05069C9.7139 4.61151 10.9667 4.37806 12.2319 4.36038C14.3428 4.26494 14.9354 4.2383 20.3447 4.2383C25.754 4.2383 26.3089 4.2383 28.4553 4.36038C29.7214 4.37561 30.9753 4.60914 32.1621 5.05069C33.0253 5.38424 33.8093 5.89461 34.4638 6.54902C35.1182 7.20343 35.6285 7.98744 35.9621 8.85072C36.3984 10.0381 36.6317 11.2905 36.6524 12.5553C36.7478 14.6662 36.7723 15.2588 36.7723 20.6681C36.7723 26.0751 36.7723 26.6567 36.6768 28.7787H36.6524V28.7764Z" fill="#FEFEFE"/>
</svg>
