<svg width="35" height="41" viewBox="0 0 35 41" fill="none" xmlns="http://www.w3.org/2000/svg">
<path d="M18.3046 0.791189C20.4902 0.757813 22.6596 0.775168 24.8278 0.757812C24.8999 3.46933 26 5.90984 27.7502 7.71752L27.7476 7.71485C29.6314 9.41172 32.0825 10.5118 34.7847 10.6987L34.8221 10.7014V17.4248C32.2694 17.3607 29.869 16.7719 27.7049 15.76L27.8143 15.8054C26.7676 15.302 25.8825 14.7854 25.0414 14.2086L25.1108 14.254C25.0948 19.1257 25.1268 23.9973 25.0774 28.8516C24.9399 31.3255 24.1175 33.5818 22.7985 35.4655L22.8252 35.4242C20.6197 38.5829 17.047 40.6563 12.9844 40.7791H12.9657C12.8015 40.7871 12.6079 40.7911 12.413 40.7911C10.1033 40.7911 7.94453 40.1476 6.10481 39.0302L6.15821 39.0609C2.80986 37.0463 0.500198 33.5991 0.0729771 29.5899L0.0676369 29.5352C0.0342602 28.7008 0.0182393 27.8663 0.051616 27.0493C0.705799 20.669 6.05141 15.7333 12.5492 15.7333C13.2795 15.7333 13.9951 15.796 14.6906 15.9148L14.6159 15.9041C14.6492 18.3727 14.5491 20.8426 14.5491 23.3111C13.9844 23.1068 13.3329 22.988 12.6533 22.988C10.1594 22.988 8.03799 24.5821 7.25297 26.8076L7.24095 26.8477C7.06339 27.4178 6.96059 28.0733 6.96059 28.7515C6.96059 29.0265 6.97794 29.2989 7.00998 29.5659L7.00731 29.5338C7.45056 32.2654 9.79226 34.3267 12.6159 34.3267C12.6974 34.3267 12.7775 34.3254 12.8576 34.3214H12.8456C14.7988 34.2626 16.4943 33.212 17.4529 31.6593L17.4662 31.6352C17.8227 31.1386 18.067 30.5378 18.1484 29.885L18.1498 29.8663C18.3167 26.8797 18.2499 23.9105 18.2659 20.924C18.282 14.2006 18.2499 7.49323 18.2993 0.787184L18.3046 0.791189Z" fill="#FEFEFE"/>
</svg>
