<svg width="51" height="43" viewBox="0 0 51 43" fill="none" xmlns="http://www.w3.org/2000/svg">
<path d="M49.4771 5.5847C48.6856 5.94196 47.8718 6.24354 47.0403 6.48842C48.0247 5.35524 48.7752 4.02193 49.2334 2.56293C49.3361 2.23592 49.2297 1.87795 48.9656 1.66402C48.7017 1.44998 48.3353 1.42434 48.0449 1.59951C46.279 2.6655 44.374 3.4316 42.3764 3.87951C40.3641 1.87825 37.6312 0.739258 34.8058 0.739258C28.842 0.739258 23.9901 5.67764 23.9901 11.7476C23.9901 12.2257 24.0198 12.7011 24.0786 13.17C16.6781 12.5086 9.798 8.80628 5.07347 2.90748C4.9051 2.69725 4.64571 2.58387 4.38012 2.6056C4.11443 2.62673 3.87561 2.77927 3.74139 3.01374C2.78314 4.68728 2.27656 6.6014 2.27656 8.54897C2.27656 11.2016 3.20696 13.7182 4.85059 15.6848C4.3508 15.5086 3.86587 15.2885 3.40298 15.027C3.15451 14.8862 2.85123 14.8884 2.60434 15.0324C2.35735 15.1765 2.20246 15.4414 2.19587 15.7311C2.19469 15.7799 2.19469 15.8286 2.19469 15.8781C2.19469 19.8375 4.28831 23.4022 7.48927 25.3451C7.21423 25.3171 6.93949 25.2765 6.66642 25.2235C6.38489 25.1687 6.09548 25.2691 5.90566 25.4877C5.71555 25.706 5.65257 26.0104 5.74025 26.2883C6.92502 30.0534 9.97542 32.8226 13.6631 33.667C10.6045 35.6168 7.10687 36.6382 3.43516 36.6382C2.66899 36.6382 1.8985 36.5924 1.14443 36.5015C0.769813 36.4562 0.411626 36.6813 0.283998 37.044C0.156369 37.4068 0.291673 37.8112 0.610302 38.0191C5.32725 41.0975 10.7813 42.7246 16.3827 42.7246C27.3943 42.7246 34.2829 37.4393 38.1225 33.0055C42.9105 27.4769 45.6565 20.1592 45.6565 12.9288C45.6565 12.6267 45.6519 12.3217 45.6428 12.0176C47.5318 10.5691 49.1581 8.81589 50.4815 6.80092C50.6826 6.49493 50.6608 6.0904 50.4279 5.80875C50.1956 5.52661 49.8079 5.43546 49.4771 5.5847Z" fill="#FEFEFE"/>
</svg>
