<svg width="343" height="242" viewBox="0 0 343 242" fill="none" xmlns="http://www.w3.org/2000/svg">
<path fill-rule="evenodd" clip-rule="evenodd" d="M124.52 164.042L89.5361 129.059H99.2538L117.718 147.522H121.604L118.689 144.607H132.294L142.012 154.325V177.647L132.294 187.365V202.913H116.746L77.8747 241.784H46.7781L62.3264 226.236V210.688L108.972 164.042V179.591L124.52 164.042ZM217.81 164.042L233.359 179.591V164.042L280.004 210.688V226.236L295.552 241.784H264.456L225.585 202.913H210.036V187.365L200.318 177.647V154.325L210.036 144.607H223.641L220.725 147.522H224.613L243.076 129.059H252.794L217.81 164.042ZM77.8747 158.211V164.042L31.2294 210.688V204.857L77.8747 158.211ZM264.456 158.211V164.042L311.101 210.688V204.857L264.456 158.211ZM77.8747 152.381L31.2294 199.026V179.591L77.8747 132.945V152.381ZM264.456 152.381L311.101 199.026V179.591L264.456 132.945V152.381ZM198.375 152.381V179.591L205.177 186.393V198.054L178.939 171.816H163.391L137.153 198.054V186.393L143.955 179.591V152.381L136.181 144.607H206.149L198.375 152.381ZM46.7781 127.115V132.945L0.132812 179.591V173.76L46.7781 127.115ZM295.552 127.115V132.945L342.199 179.591V173.76L295.552 127.115ZM46.7781 121.284L0.132812 167.929V148.494L46.7781 101.849V121.284ZM295.552 121.284L342.199 167.929V148.494L295.552 101.849V121.284ZM148.815 139.748H113.83L99.2538 125.171H85.6488L70.1005 109.623V62.9777L7.90696 0.78418H39.0039L155.617 117.397H186.713L303.326 0.78418H334.424L272.23 62.9777V109.623L256.682 125.171H243.076L228.5 139.748H193.516L188.657 134.889H153.673L148.815 139.748ZM60.3827 99.9052V61.0341L65.2418 65.8932V104.764L60.3827 99.9052ZM281.948 99.9052V61.0341L277.089 65.8932V104.764L281.948 99.9052ZM50.6649 90.1874V51.3163L55.524 56.1754V95.0461L50.6649 90.1874ZM291.665 90.1874V51.3163L286.806 56.1754V95.0461L291.665 90.1874ZM40.9472 80.4696V41.5985L45.8062 46.4576V85.3283L40.9472 80.4696ZM301.383 80.4696V41.5985L296.524 46.4576V85.3283L301.383 80.4696ZM31.2294 70.7519V31.8808L36.0885 36.7398V75.6105L31.2294 70.7519ZM311.101 70.7519V31.8808L306.242 36.7398V75.6105L311.101 70.7519Z" fill="white"/>
</svg>
