<svg width="1535" height="123" viewBox="0 0 1535 123" fill="none" xmlns="http://www.w3.org/2000/svg">
<path d="M931.046 0.733398L917.14 14.6562V38.0335H943.761L951.653 30.9932H1036.69L1021.41 46.2811H957.15L917.14 86.1676V122.433H1059.35L1073.26 108.51V85.133H1046.82L1038.91 92.1733H953.706L968.989 76.8856H1033.26L1073.26 36.9992V14.6564L1059.35 0.733398H931.046ZM1085.65 0.733398V108.51L1099.56 122.433H1115.86V14.6562L1101.96 0.733398H1085.65ZM1128.41 0.733398V82.3887L1168.23 122.433H1300.72V14.6562L1286.99 0.733398H1270.68V92.1733H1180.6L1158.63 70.0032V14.6564L1144.73 0.733398H1128.41ZM1325.04 0.733398L1311.3 14.6562V108.51L1325.04 122.433H1341.35V23.7657L1400.75 82.8914L1373.28 110.564V122.433H1405.39L1497.04 30.9929H1520.56L1534.47 17.0704V0.733398H1483.14L1422.89 60.8937L1362.64 0.733398H1325.04ZM0.744141 0.747857V37.0131L40.7535 76.8856H122.894L144.52 98.5386V122.433H161.009L174.742 108.51V86.1676L134.733 46.2953H52.5928L30.9665 24.6421V14.6706L17.2329 0.747857H0.744141ZM46.7521 0.747857V17.0704L60.4856 30.9929H156.661L148.18 22.3863V0.747857H46.7521ZM161.009 0.747857V17.0704L174.742 30.9929H232.19V108.51L246.096 122.433H262.398V30.9929H290.855V0.747857H161.009ZM304.368 0.747857V37.0131L328.922 61.5977L304.368 86.1676V108.51L318.274 122.433H484.182L486.879 119.733L459.47 92.1889H340.934L356.217 76.8867H455.007V46.6414H356.561L334.576 24.6435V14.672L320.685 0.749247L304.368 0.747857ZM342.656 0.747857V17.0704L356.389 30.9929H455.007V0.747857H342.656ZM470.082 0.747857V82.3887L509.905 122.433H615.123L585.059 92.1878H522.261L500.29 70.0174V14.6706L486.384 0.747857H470.082ZM594.999 0.747857V82.3887L634.836 122.433H736.452L727.899 113.783V92.1878H647.192L625.221 70.0174V14.6706L611.315 0.747857H594.999ZM780.523 0.747857L740.7 40.4475V108.51L754.433 122.433H770.735V76.8856H857.944V60.5631L844.039 46.6401H777.265L792.721 31.1655H852.276L874.246 53.1632L874.08 122.433H890.382L904.288 108.51V80.8077V50.8933V40.4472L864.278 0.747857H780.523ZM1502.71 40.2751L1433.03 110.564V122.433H1465.11L1504.26 82.8914V122.433H1520.56L1534.47 108.51V40.2751H1502.71ZM0.744141 85.1327V108.51L14.6499 122.433H131.131V105.938L117.225 92.1878H35.2573L27.3501 85.1327H0.744141Z" fill="#FEFEFE"/>
</svg>
